<svg width="16" height="16" viewBox="0 0 16 16" fill="none" xmlns="http://www.w3.org/2000/svg">
<path d="M15.2826 7.64104H9.14163V1.50406C9.13488 1.32783 9.06011 1.16105 8.93305 1.03876C8.80598 0.916464 8.63647 0.848145 8.46012 0.848145C8.28376 0.848145 8.11425 0.916464 7.98718 1.03876C7.86012 1.16105 7.78538 1.32783 7.77863 1.50406V7.64104H1.64163C1.4654 7.64779 1.29862 7.72253 1.17633 7.84959C1.05404 7.97666 0.985718 8.14617 0.985718 8.32252C0.985718 8.49888 1.05404 8.66839 1.17633 8.79545C1.29862 8.92252 1.4654 8.99729 1.64163 9.00404H7.77863V15.141C7.77511 15.2327 7.79012 15.3242 7.82279 15.4099C7.85545 15.4957 7.90509 15.5739 7.96872 15.64C8.03235 15.7062 8.10868 15.7587 8.19312 15.7947C8.27755 15.8306 8.36836 15.8491 8.46012 15.8491C8.55188 15.8491 8.64271 15.8306 8.72714 15.7947C8.81158 15.7587 8.88788 15.7062 8.95151 15.64C9.01514 15.5739 9.06478 15.4957 9.09744 15.4099C9.13011 15.3242 9.14515 15.2327 9.14163 15.141V9.00404H15.2786C15.3703 9.00755 15.4618 8.99252 15.5475 8.95985C15.6333 8.92719 15.7115 8.87755 15.7777 8.81392C15.8438 8.75029 15.8964 8.67399 15.9323 8.58955C15.9682 8.50512 15.9867 8.41428 15.9867 8.32252C15.9867 8.23076 15.9682 8.13996 15.9323 8.05553C15.8964 7.97109 15.8438 7.89476 15.7777 7.83113C15.7115 7.7675 15.6333 7.71786 15.5475 7.6852C15.4618 7.65253 15.3703 7.63752 15.2786 7.64104H15.2826Z" fill="#418BCA"/>
</svg>
