<svg width="18" height="18" viewBox="0 0 18 18" fill="none" xmlns="http://www.w3.org/2000/svg">
<g clip-path="url(#clip0_2095_4066)">
<path d="M14.2725 2.66998C13.02 1.62748 11.4675 0.944976 9.75 0.787476V2.29498C11.0475 2.43748 12.2325 2.95498 13.2075 3.73498L14.2725 2.66998Z" fill="white"/>
<path d="M8.24999 2.29498V0.787476C6.53249 0.937476 4.97999 1.62748 3.72749 2.66998L4.79249 3.73498C5.76749 2.95498 6.95249 2.43748 8.24999 2.29498Z" fill="white"/>
<path d="M3.73501 4.79242L2.67001 3.72742C1.62751 4.97992 0.945006 6.53242 0.787506 8.24992H2.29501C2.43751 6.95242 2.95501 5.76742 3.73501 4.79242Z" fill="white"/>
<path d="M15.705 8.24992H17.2125C17.055 6.53242 16.3725 4.97992 15.33 3.72742L14.265 4.79242C15.045 5.76742 15.5625 6.95242 15.705 8.24992Z" fill="white"/>
<path d="M5.25 9L7.83 10.17L9 12.75L10.17 10.17L12.75 9L10.17 7.83L9 5.25L7.83 7.83L5.25 9Z" fill="white"/>
<path d="M9 15.7499C6.6675 15.7499 4.6125 14.5574 3.405 12.7499H5.25V11.2499H0.75V15.7499H2.25V13.7249C3.7425 15.8549 6.2025 17.2499 9 17.2499C12.6525 17.2499 15.75 14.8724 16.83 11.5799L15.36 11.2424C14.4375 13.8599 11.94 15.7499 9 15.7499Z" fill="white"/>
</g>
<defs>
<clipPath id="clip0_2095_4066">
<rect width="18" height="18" fill="white"/>
</clipPath>
</defs>
</svg>
