<svg width="677" height="565" viewBox="0 0 677 565" fill="none" xmlns="http://www.w3.org/2000/svg">
<path d="M461 84.9358C488.5 124.596 396.861 124.596 335.988 124.596C275.115 124.596 192 124.596 214 84.9358C214 38.0271 275.115 0 335.988 0C396.861 0 461 38.0271 461 84.9358Z" fill="#D9D9D9"/>
<path d="M521 153C607.156 153 677 222.844 677 309V409C677 495.156 607.156 565 521 565H156C69.8436 565 0 495.156 0 409V309C1.26103e-06 222.844 69.8436 153 156 153H521ZM170.5 283C137.639 283 111 317.25 111 359.5C111 401.75 137.639 436 170.5 436C203.361 436 230 401.75 230 359.5C230 317.25 203.361 283 170.5 283ZM498.5 283C465.639 283 439 317.25 439 359.5C439 401.75 465.639 436 498.5 436C531.361 436 558 401.75 558 359.5C558 317.25 531.361 283 498.5 283Z" fill="#D9D9D9"/>
</svg>
