<svg width="301" height="77" viewBox="0 0 301 77" fill="none" xmlns="http://www.w3.org/2000/svg">
<g clip-path="url(#clip0_1469_2036)">
<path d="M38.2808 -5.34058e-05C17.1376 -5.34058e-05 0 17.1386 0 38.2792C0 59.4214 17.1376 76.5615 38.2808 76.5615C59.424 76.5615 76.5616 59.4214 76.5616 38.2792C76.5616 17.1386 59.424 -5.34058e-05 38.2808 -5.34058e-05ZM28.7194 22.3188H38.2808V25.4444H28.7194V22.3188ZM49.8244 71.4862L47.8427 34.11H38.2808V73.435C34.2375 73.435 30.3554 72.7423 26.7363 71.4847L28.7194 34.11H38.2808V30.982H28.7816L3.1716 35.5313C3.49322 31.4065 4.5277 27.4834 6.15738 23.8784L28.7194 28.3561V28.334H38.2808V25.4444H47.8427V22.3173H38.2808V18.9452H47.8427L38.2808 8.73122V18.9452H28.7194L38.2808 8.73122V3.12642C52.564 3.12642 64.8803 11.6583 70.4042 23.8784L47.8427 28.3561V28.334H38.2808V30.982H47.7799L73.3914 35.5313C73.4626 36.4397 73.5092 37.3541 73.5092 38.2792C73.5092 53.6303 63.5952 66.705 49.8244 71.4862Z" fill="#025F9E"/>
<path d="M111.145 49.9821C115.223 49.9821 117.7 48.379 117.7 45.3202V45.2226C117.7 42.3584 115.418 40.6586 110.707 40.6586H101.239V49.9821H111.145ZM109.396 35.6083C113.232 35.6083 115.806 34.1031 115.806 30.9952V30.8982C115.806 28.2276 113.67 26.5769 109.834 26.5769H101.239V35.6083H109.396ZM95.3638 21.2843H110.611C114.495 21.2843 117.554 22.3527 119.497 24.2946C121.002 25.8002 121.779 27.6452 121.779 29.9274V30.0245C121.779 34.1031 119.448 36.2878 116.923 37.5992C120.905 38.9593 123.672 41.2411 123.672 45.8546V45.9511C123.672 52.0208 118.671 55.2738 111.096 55.2738H95.3638V21.2843Z" fill="#025F9E"/>
<path d="M129.052 21.2843H154.253V26.6255H135.025V35.4632H152.068V40.8042H135.025V49.9332H154.495V55.2738H129.052V21.2843Z" fill="#025F9E"/>
<path d="M182.627 41.7755L176.752 28.1797L170.924 41.7755H182.627ZM174.082 21.0412H179.617L194.572 55.2738H188.261L184.813 47.068H168.739L165.244 55.2738H159.125L174.082 21.0412Z" fill="#025F9E"/>
<path d="M195.986 38.3759V38.2793C195.986 28.6164 203.222 20.7014 213.515 20.7014C219.779 20.7014 223.567 22.8861 226.822 25.9939L222.984 30.4128C220.265 27.8884 217.352 26.1881 213.467 26.1881C206.961 26.1881 202.251 31.5292 202.251 38.1822V38.2793C202.251 44.9313 206.961 50.37 213.467 50.37C217.643 50.37 220.314 48.6707 223.228 45.9511L227.063 49.8355C223.518 53.5264 219.634 55.8572 213.273 55.8572C203.368 55.8572 195.986 48.1363 195.986 38.3759Z" fill="#025F9E"/>
<path d="M259.632 38.3759V38.2793C259.632 31.6758 254.825 26.1881 248.076 26.1881C241.326 26.1881 236.617 31.5777 236.617 38.1822V38.2793C236.617 44.8833 241.424 50.37 248.174 50.37C254.921 50.37 259.632 44.9799 259.632 38.3759ZM230.352 38.3759V38.2793C230.352 28.7131 237.734 20.7014 248.174 20.7014C258.614 20.7014 265.897 28.6164 265.897 38.1822V38.2793C265.897 47.8446 258.516 55.8572 248.076 55.8572C237.636 55.8572 230.352 47.9426 230.352 38.3759Z" fill="#025F9E"/>
<path d="M271.382 21.2843H276.918L295.126 44.7862V21.2843H301.001V55.2738H296.001L277.257 31.0928V55.2738H271.382V21.2843Z" fill="#025F9E"/>
</g>
<defs>
<clipPath id="clip0_1469_2036">
<rect width="301" height="76.5616" fill="white"/>
</clipPath>
</defs>
</svg>
