<svg xmlns="http://www.w3.org/2000/svg" width="24" height="24" viewBox="0 0 24 24"><rect data-name="Rectangle 4309" width="24" height="24" fill="none"/><g data-name="Group 4932" transform="translate(3 2)"><path data-name="Path 1286" d="M5,22h7.5V20.5H5A1.5,1.5,0,0,1,3.5,19V4A1.5,1.5,0,0,1,5,2.5H17A1.5,1.5,0,0,1,18.5,4V14.5H20V4a3,3,0,0,0-3-3H5A3,3,0,0,0,2,4V19a3,3,0,0,0,3,3Z" transform="translate(-2 -1)" fill="currentColor"/><path data-name="Path 1287" d="M9,3.25V8.5L16.5,1H11.25A2.25,2.25,0,0,0,9,3.25Z" transform="translate(1.5 12.5)" fill="currentColor"/><text data-name="$" transform="translate(6.4 11.7)" fill="currentColor" font-size="9" font-family="Roboto-Bold, Roboto" font-weight="700"><tspan x="0" y="0">$</tspan></text></g></svg>