<svg xmlns="http://www.w3.org/2000/svg" width="24" height="24" viewBox="0 0 24 24"><rect data-name="Rectangle 4309" width="24" height="24" fill="none"/><g data-name="Group 2121" transform="translate(3 2)"><path data-name="Path 1286" d="M5,22h7.5V20.5H5A1.5,1.5,0,0,1,3.5,19V4A1.5,1.5,0,0,1,5,2.5H17A1.5,1.5,0,0,1,18.5,4V14.5H20V4a3,3,0,0,0-3-3H5A3,3,0,0,0,2,4V19a3,3,0,0,0,3,3Z" transform="translate(-2 -1)" fill="currentColor"/><path data-name="Path 1287" d="M9,3.25V8.5L16.5,1H11.25A2.25,2.25,0,0,0,9,3.25Z" transform="translate(1.5 12.5)" fill="currentColor"/><g data-name="Group 2123" transform="translate(2.73 2.501)"><path data-name="Path 1300" d="M10.9,3.5a.37.37,0,0,1,.4.334V9.855a.4.4,0,0,1-.8,0V3.834A.37.37,0,0,1,10.9,3.5Z" transform="translate(-1.84 -0.331)" fill="currentColor" fill-rule="evenodd"/><path data-name="Path 1301" d="M8.776,2.6a.453.453,0,0,1,.563,0L11.726,4.6a.3.3,0,0,1,0,.474.453.453,0,0,1-.563,0L9.058,3.307,6.953,5.078a.453.453,0,0,1-.563,0,.3.3,0,0,1,0-.474ZM1.616,7.28a.453.453,0,0,1,.563,0L4.284,9.051,6.389,7.28a.453.453,0,0,1,.563,0,.3.3,0,0,1,0,.474L4.566,9.761a.453.453,0,0,1-.563,0L1.616,7.754a.3.3,0,0,1,0-.474Z" fill="currentColor" fill-rule="evenodd"/><path data-name="Path 1302" d="M4.9,2.5a.37.37,0,0,1,.4.334V8.855a.37.37,0,0,1-.4.334.37.37,0,0,1-.4-.334V2.834A.37.37,0,0,1,4.9,2.5Z" transform="translate(-0.613 0)" fill="currentColor" fill-rule="evenodd"/></g></g></svg>