<svg width="24" height="24" viewBox="0 0 24 24" fill="none" xmlns="http://www.w3.org/2000/svg">
<g clip-path="url(#clip0_1886_2240)">
<path d="M6.06303 19.7549H2.40802C2.30909 19.7543 2.21134 19.7334 2.12073 19.6937C2.03013 19.654 1.94856 19.5962 1.88103 19.5239C1.74005 19.3728 1.66207 19.1736 1.66302 18.9669V13.0319C1.6633 12.8711 1.60213 12.7162 1.49202 12.5989C1.43977 12.5423 1.37637 12.4972 1.30581 12.4663C1.23525 12.4354 1.15905 12.4194 1.08202 12.4194C1.00499 12.4194 0.9288 12.4354 0.858238 12.4663C0.787675 12.4972 0.724273 12.5423 0.672023 12.5989C0.562518 12.7161 0.501736 12.8706 0.502025 13.0309V18.9659C0.500304 19.4939 0.700257 20.0025 1.06102 20.3879C1.23377 20.5728 1.44242 20.7205 1.6742 20.8219C1.90598 20.9233 2.15602 20.9764 2.40903 20.9779H6.06203L6.06303 19.7549Z" fill="#222326" stroke="#222326"/>
<path d="M21.959 9.49419H21.304V10.7192H21.388V18.9672C21.3885 19.174 21.3102 19.3731 21.169 19.5242C21.1013 19.5966 21.0196 19.6544 20.9288 19.6941C20.838 19.7338 20.7401 19.7546 20.641 19.7552H16.969V20.9792H20.635C20.888 20.9777 21.138 20.9246 21.3698 20.8232C21.6016 20.7217 21.8102 20.574 21.983 20.3892C22.3437 20.0037 22.5436 19.4951 22.542 18.9672V10.1062C22.542 10.0254 22.5267 9.94532 22.497 9.87019C22.4677 9.79583 22.4243 9.72789 22.369 9.67019C22.3149 9.61374 22.2499 9.56885 22.178 9.53819C22.1072 9.50811 22.0309 9.49312 21.954 9.49419H21.959Z" fill="#222326" stroke="#222326"/>
<path d="M11.481 15.0301C11.0443 15.0308 10.6122 14.9409 10.212 14.7661C9.8062 14.5885 9.44025 14.3311 9.13603 14.0091C8.51276 13.3362 8.1665 12.4528 8.1665 11.5356C8.1665 10.6184 8.51276 9.73497 9.13603 9.06207C9.43553 8.73981 9.79826 8.48277 10.2016 8.30701C10.6049 8.13124 11.0401 8.04053 11.48 8.04053C11.92 8.04053 12.3552 8.13124 12.7585 8.30701C13.1618 8.48277 13.5245 8.73981 13.824 9.06207C13.9324 9.17984 13.9925 9.33403 13.9925 9.49407C13.9925 9.65411 13.9324 9.8083 13.824 9.92607C13.7716 9.98224 13.7082 10.027 13.6378 10.0577C13.5673 10.0883 13.4914 10.1041 13.4145 10.1041C13.3377 10.1041 13.2617 10.0883 13.1913 10.0577C13.1208 10.027 13.0574 9.98224 13.005 9.92607C12.8106 9.71624 12.5749 9.54883 12.3128 9.43434C12.0506 9.31986 11.7676 9.26077 11.4815 9.26077C11.1955 9.26077 10.9125 9.31986 10.6503 9.43434C10.3882 9.54883 10.1525 9.71624 9.95803 9.92607C9.55263 10.3632 9.32737 10.9374 9.32737 11.5336C9.32737 12.1298 9.55263 12.7039 9.95803 13.1411C10.1527 13.3505 10.3885 13.5176 10.6506 13.6318C10.9127 13.746 11.1956 13.805 11.4815 13.805C11.7675 13.805 12.0503 13.746 12.3125 13.6318C12.5746 13.5176 12.8104 13.3505 13.005 13.1411C13.0581 13.0846 13.1221 13.0393 13.193 13.0081C13.2628 12.9774 13.3383 12.9615 13.4145 12.9615C13.4908 12.9615 13.5662 12.9774 13.636 13.0081C13.707 13.0393 13.7709 13.0846 13.824 13.1411C13.9324 13.2588 13.9925 13.413 13.9925 13.5731C13.9925 13.7331 13.9324 13.8873 13.824 14.0051C13.5203 14.3277 13.1547 14.5858 12.749 14.7641C12.3493 14.9394 11.9175 15.03 11.481 15.0301V15.0301Z" fill="#222326"/>
<path d="M11.519 22.547C11.4244 22.5466 11.3315 22.5222 11.249 22.476C11.1642 22.4275 11.0928 22.3588 11.041 22.276L6.51901 15.319C5.74664 14.1219 5.37828 12.7088 5.468 11.287C5.55023 9.86991 6.08831 8.51734 7.002 7.43102C7.56284 6.76602 8.25942 6.22866 9.045 5.85501C9.81781 5.48754 10.6628 5.29688 11.5185 5.29688C12.3742 5.29688 13.2192 5.48754 13.992 5.85501C14.7774 6.22804 15.4737 6.76511 16.034 7.43002C16.9487 8.51529 17.4882 9.86713 17.572 11.284C17.6634 12.7039 17.2979 14.1158 16.529 15.313L12.007 22.28C11.9545 22.3632 11.8819 22.432 11.796 22.48C11.7122 22.5263 11.6178 22.5501 11.522 22.549L11.519 22.547ZM11.519 6.51801C10.8271 6.51963 10.1441 6.67433 9.519 6.97102C8.88371 7.27335 8.32045 7.70807 7.867 8.24602C7.12673 9.12418 6.69066 10.2184 6.62401 11.365C6.55132 12.5155 6.84998 13.659 7.476 14.627L11.52 20.849L15.562 14.627C16.188 13.6593 16.4866 12.5162 16.414 11.366C16.3476 10.2198 15.9119 9.12592 15.172 8.24802C14.7186 7.70973 14.1554 7.27466 13.52 6.97202C12.8947 6.67484 12.2113 6.5198 11.519 6.51801V6.51801Z" fill="#222326" stroke="#222326"/>
<path d="M20.632 3.60101H17.066C16.9231 3.59963 16.7839 3.55576 16.666 3.475C16.5442 3.39106 16.4488 3.27417 16.391 3.138L15.77 1.68401C15.623 1.33647 15.3802 1.03787 15.07 0.823006C14.7625 0.611845 14.398 0.499193 14.025 0.500004H8.98501C8.62146 0.501664 8.26655 0.610921 7.96501 0.814004C7.65793 1.02284 7.41544 1.31347 7.26501 1.653L6.59701 3.153C6.53754 3.28603 6.44191 3.39967 6.32101 3.481C6.20279 3.5607 6.06358 3.60351 5.92101 3.604H2.40601C2.15318 3.60563 1.90333 3.65879 1.67173 3.76023C1.44013 3.86167 1.23164 4.00927 1.05901 4.194C0.698419 4.57954 0.49849 5.08812 0.500009 5.61601V10.127C0.499831 10.2074 0.514759 10.2871 0.544011 10.362C0.572683 10.4362 0.615473 10.5041 0.670011 10.562C0.72314 10.6185 0.78707 10.6637 0.85801 10.695C0.927966 10.7258 1.00356 10.7419 1.08001 10.742H1.82501V9.51201H1.66101V5.612C1.66058 5.40555 1.7389 5.20671 1.88001 5.056C1.9476 4.98385 2.02919 4.92624 2.11981 4.88669C2.21042 4.84714 2.30814 4.82649 2.40701 4.826H5.91901C6.28224 4.82433 6.63683 4.71506 6.93801 4.51201C7.24534 4.30302 7.48787 4.01199 7.63801 3.67201L8.30801 2.17201C8.3668 2.03832 8.46212 1.92393 8.58301 1.842C8.70117 1.76219 8.84042 1.71938 8.98301 1.71901H14.025C14.168 1.72086 14.3072 1.76505 14.425 1.84601C14.5469 1.92966 14.6426 2.04616 14.701 2.182L15.325 3.64C15.472 3.98757 15.7148 4.28618 16.025 4.501C16.3293 4.7095 16.6892 4.82169 17.058 4.82301H20.624C20.7229 4.82349 20.8206 4.84414 20.9112 4.88369C21.0018 4.92323 21.0834 4.98085 21.151 5.05301C21.2921 5.20371 21.3704 5.40255 21.37 5.60901V7.53101C21.3698 7.61141 21.3847 7.69113 21.414 7.766C21.4424 7.84012 21.4848 7.90804 21.539 7.966C21.5921 8.02248 21.6561 8.06771 21.727 8.099C21.797 8.12974 21.8726 8.14562 21.949 8.14562C22.0254 8.14562 22.101 8.12974 22.171 8.099C22.242 8.06771 22.3059 8.02248 22.359 7.966C22.4132 7.90804 22.4557 7.84012 22.484 7.766C22.5133 7.69113 22.5282 7.61141 22.528 7.53101V5.613C22.5295 5.08512 22.3296 4.57654 21.969 4.19101C21.7964 4.00627 21.5879 3.85868 21.3563 3.75723C21.1247 3.65579 20.8748 3.60263 20.622 3.60101H20.632Z" fill="#222326" stroke="#222326"/>
<path d="M6.48003 10.1159C6.48078 9.95515 6.41995 9.80021 6.31004 9.6829C6.25748 9.62672 6.19401 9.58187 6.12351 9.55109C6.05301 9.52031 5.97696 9.50426 5.90004 9.50391H1.66003V10.7289H5.90004C5.97649 10.7287 6.05207 10.7127 6.12204 10.6819C6.19298 10.6506 6.25691 10.6054 6.31004 10.5489C6.36457 10.491 6.40736 10.4231 6.43604 10.3489C6.46531 10.274 6.48023 10.1943 6.48003 10.1139V10.1159Z" fill="#222326" stroke="#222326"/>
<path d="M16.51 10.1159C16.5093 9.95515 16.5701 9.80021 16.68 9.6829C16.7326 9.62672 16.796 9.58187 16.8665 9.55109C16.937 9.52031 17.0131 9.50426 17.09 9.50391H21.33V10.7289H17.09C17.0136 10.7287 16.938 10.7127 16.868 10.6819C16.7971 10.6506 16.7331 10.6054 16.68 10.5489C16.6255 10.491 16.5827 10.4231 16.554 10.3489C16.525 10.2746 16.5101 10.1956 16.51 10.1159V10.1159Z" fill="#222326" stroke="#222326"/>
<path d="M12.199 20.3649C12.1982 20.2042 12.2591 20.0492 12.369 19.9319C12.4215 19.8758 12.485 19.8309 12.5555 19.8001C12.626 19.7693 12.7021 19.7533 12.779 19.7529H17.02V20.9769H12.774C12.6976 20.9756 12.6223 20.9589 12.5525 20.9278C12.4828 20.8967 12.42 20.8518 12.368 20.7959C12.2594 20.6791 12.199 20.5254 12.199 20.3659V20.3649Z" fill="#222326" stroke="#222326"/>
<path d="M10.827 20.3689C10.8277 20.2081 10.7669 20.0531 10.657 19.9358C10.6044 19.8797 10.541 19.8348 10.4705 19.804C10.4 19.7733 10.3239 19.7572 10.247 19.7568H6.00598V20.9768H10.252C10.3284 20.9755 10.4037 20.9588 10.4734 20.9277C10.5432 20.8966 10.606 20.8518 10.658 20.7958C10.7659 20.6798 10.8263 20.5274 10.827 20.3689V20.3689Z" fill="#222326" stroke="#222326"/>
</g>
<defs>
<clipPath id="clip0_1886_2240">
<rect width="23.047" height="23.047" fill="white"/>
</clipPath>
</defs>
</svg>
