<svg width="24" height="24" viewBox="0 0 24 24" fill="none" xmlns="http://www.w3.org/2000/svg">
<path d="M18.2 4.16611H19.512C20.0955 4.16611 20.655 4.39789 21.0676 4.81047C21.4802 5.22305 21.712 5.78263 21.712 6.36611V19.5121C21.7127 19.8012 21.6562 20.0876 21.5459 20.3548C21.4355 20.622 21.2735 20.8648 21.0691 21.0692C20.8647 21.2736 20.6219 21.4357 20.3547 21.546C20.0875 21.6563 19.8011 21.7128 19.512 21.7121H4.61199C4.02852 21.7121 3.46894 21.4803 3.05636 21.0677C2.64378 20.6552 2.41199 20.0956 2.41199 19.5121V6.36211C2.41133 6.07302 2.46779 5.78664 2.57812 5.51943C2.68844 5.25221 2.85047 5.00942 3.05489 4.805C3.25931 4.60058 3.5021 4.43856 3.76931 4.32823C4.03652 4.2179 4.3229 4.16145 4.61199 4.16211H5.92099V3.28911C5.92099 3.17394 5.94368 3.0599 5.98775 2.9535C6.03182 2.84709 6.09642 2.75041 6.17786 2.66898C6.2593 2.58754 6.35598 2.52294 6.46238 2.47887C6.56878 2.43479 6.68282 2.41211 6.79799 2.41211C6.91316 2.41211 7.0272 2.43479 7.13361 2.47887C7.24001 2.52294 7.33669 2.58754 7.41813 2.66898C7.49956 2.75041 7.56416 2.84709 7.60824 2.9535C7.65231 3.0599 7.67499 3.17394 7.67499 3.28911V4.16611H9.42899V3.28911C9.42899 3.05651 9.52139 2.83345 9.68586 2.66898C9.85033 2.50451 10.0734 2.41211 10.306 2.41211C10.5386 2.41211 10.7617 2.50451 10.9261 2.66898C11.0906 2.83345 11.183 3.05651 11.183 3.28911V4.16611H12.937V3.28911C12.937 3.17394 12.9597 3.0599 13.0038 2.9535C13.0478 2.84709 13.1124 2.75041 13.1939 2.66898C13.2753 2.58754 13.372 2.52294 13.4784 2.47887C13.5848 2.43479 13.6988 2.41211 13.814 2.41211C13.9292 2.41211 14.0432 2.43479 14.1496 2.47887C14.256 2.52294 14.3527 2.58754 14.4341 2.66898C14.5156 2.75041 14.5802 2.84709 14.6242 2.9535C14.6683 3.0599 14.691 3.17394 14.691 3.28911V4.16611H16.445V3.28911C16.445 3.05651 16.5374 2.83345 16.7019 2.66898C16.8663 2.50451 17.0894 2.41211 17.322 2.41211C17.5546 2.41211 17.7777 2.50451 17.9421 2.66898C18.1066 2.83345 18.199 3.05651 18.199 3.28911V4.16611H18.2ZM18.2 5.92011V6.79711C18.2 7.0297 18.1076 7.25277 17.9431 7.41724C17.7787 7.58171 17.5556 7.67411 17.323 7.67411C17.0904 7.67411 16.8673 7.58171 16.7029 7.41724C16.5384 7.25277 16.446 7.0297 16.446 6.79711V5.92111H14.692V6.79811C14.692 7.0307 14.5996 7.25377 14.4351 7.41824C14.2707 7.58271 14.0476 7.67511 13.815 7.67511C13.5824 7.67511 13.3593 7.58271 13.1949 7.41824C13.0304 7.25377 12.938 7.0307 12.938 6.79811V5.92111H11.183V6.79811C11.183 7.0307 11.0906 7.25377 10.9261 7.41824C10.7617 7.58271 10.5386 7.67511 10.306 7.67511C10.0734 7.67511 9.85033 7.58271 9.68586 7.41824C9.52139 7.25377 9.42899 7.0307 9.42899 6.79811V5.92111H7.67499V6.79811C7.67499 7.0307 7.58259 7.25377 7.41813 7.41824C7.25366 7.58271 7.03059 7.67511 6.79799 7.67511C6.5654 7.67511 6.34233 7.58271 6.17786 7.41824C6.01339 7.25377 5.92099 7.0307 5.92099 6.79811V5.92111H4.61199C4.554 5.92111 4.49657 5.93255 4.443 5.95477C4.38943 5.977 4.34077 6.00957 4.2998 6.05063C4.25884 6.09169 4.22638 6.14042 4.20427 6.19404C4.18217 6.24766 4.17086 6.30511 4.17099 6.36311V19.5121C4.17086 19.5701 4.18217 19.6276 4.20427 19.6812C4.22638 19.7348 4.25884 19.7835 4.2998 19.8246C4.34077 19.8656 4.38943 19.8982 4.443 19.9204C4.49657 19.9427 4.554 19.9541 4.61199 19.9541H19.512C19.57 19.9541 19.6274 19.9427 19.681 19.9204C19.7346 19.8982 19.7832 19.8656 19.8242 19.8246C19.8651 19.7835 19.8976 19.7348 19.9197 19.6812C19.9418 19.6276 19.9531 19.5701 19.953 19.5121V6.36211C19.9531 6.30411 19.9418 6.24666 19.9197 6.19304C19.8976 6.13942 19.8651 6.09069 19.8242 6.04963C19.7832 6.00857 19.7346 5.976 19.681 5.95377C19.6274 5.93155 19.57 5.92011 19.512 5.92011H18.2ZM6.79999 11.6201C6.5674 11.6201 6.34433 11.5277 6.17986 11.3632C6.01539 11.1988 5.92299 10.9757 5.92299 10.7431C5.92299 10.5105 6.01539 10.2874 6.17986 10.123C6.34433 9.95851 6.5674 9.86611 6.79999 9.86611H16.012C16.2446 9.86611 16.4677 9.95851 16.6321 10.123C16.7966 10.2874 16.889 10.5105 16.889 10.7431C16.889 10.9757 16.7966 11.1988 16.6321 11.3632C16.4677 11.5277 16.2446 11.6201 16.012 11.6201H6.79999ZM6.79999 14.6901C6.5674 14.6901 6.34433 14.5977 6.17986 14.4332C6.01539 14.2688 5.92299 14.0457 5.92299 13.8131C5.92299 13.5805 6.01539 13.3574 6.17986 13.193C6.34433 13.0285 6.5674 12.9361 6.79999 12.9361H17.323C17.5556 12.9361 17.7787 13.0285 17.9431 13.193C18.1076 13.3574 18.2 13.5805 18.2 13.8131C18.2 14.0457 18.1076 14.2688 17.9431 14.4332C17.7787 14.5977 17.5556 14.6901 17.323 14.6901H6.79999ZM6.79999 17.7601C6.5674 17.7601 6.34433 17.6677 6.17986 17.5032C6.01539 17.3388 5.92299 17.1157 5.92299 16.8831C5.92299 16.6505 6.01539 16.4274 6.17986 16.263C6.34433 16.0985 6.5674 16.0061 6.79999 16.0061H12.94C13.1726 16.0061 13.3957 16.0985 13.5601 16.263C13.7246 16.4274 13.817 16.6505 13.817 16.8831C13.817 17.1157 13.7246 17.3388 13.5601 17.5032C13.3957 17.6677 13.1726 17.7601 12.94 17.7601H6.79999Z" fill="#222326"/>
</svg>