<?xml version="1.0" encoding="utf-8"?>
<svg height="5" width="5" viewBox="0 0 512 512" xmlns="http://www.w3.org/2000/svg">
  <path d="M 224.956 115.623 L 86.457 247.805 C 71.617 261.969 71.617 284.915 86.457 299.079 L 133.95 344.405 C 141.073 351.204 150.75 355 160.842 355 L 223.353 355 L 228.933 355 L 356.33 355 C 366.838 355 375.327 346.898 375.327 336.87 C 375.327 326.841 366.838 318.739 356.33 318.739 L 282.659 318.739 L 360.248 244.745 C 375.09 230.581 375.09 207.635 360.248 193.47 L 278.74 115.623 C 263.899 101.459 239.856 101.459 225.015 115.623 L 224.956 115.623 Z M 228.933 318.796 L 223.353 318.796 L 160.783 318.796 L 113.291 273.47 L 187.319 202.819 L 268.886 280.666 L 228.933 318.796 Z" style="fill: #ffffff; transform-box: fill-box; transform-origin: 50% 50%;"/>
</svg>