<svg width="40" height="40" viewBox="0 0 61 62" fill="none" xmlns="http://www.w3.org/2000/svg">
<path d="M30.415 44.1225C31.1351 44.1225 31.7387 43.8789 32.2258 43.3918C32.7129 42.9047 32.9565 42.3011 32.9565 41.581C32.9565 40.8609 32.7129 40.2573 32.2258 39.7702C31.7387 39.2831 31.1351 39.0395 30.415 39.0395C29.6949 39.0395 29.0913 39.2831 28.6042 39.7702C28.1171 40.2573 27.8735 40.8609 27.8735 41.581C27.8735 42.3011 28.1171 42.9047 28.6042 43.3918C29.0913 43.8789 29.6949 44.1225 30.415 44.1225ZM27.8735 33.9565H32.9565V18.7075H27.8735V33.9565ZM30.415 56.83C26.8993 56.83 23.5953 56.1629 20.5031 54.8286C17.411 53.4943 14.7212 51.6835 12.4339 49.3961C10.1465 47.1088 8.33572 44.419 7.00143 41.3269C5.66714 38.2347 5 34.9307 5 31.415C5 27.8993 5.66714 24.5953 7.00143 21.5031C8.33572 18.411 10.1465 15.7212 12.4339 13.4339C14.7212 11.1465 17.411 9.33572 20.5031 8.00143C23.5953 6.66714 26.8993 6 30.415 6C33.9307 6 37.2347 6.66714 40.3269 8.00143C43.419 9.33572 46.1088 11.1465 48.3961 13.4339C50.6835 15.7212 52.4943 18.411 53.8286 21.5031C55.1629 24.5953 55.83 27.8993 55.83 31.415C55.83 34.9307 55.1629 38.2347 53.8286 41.3269C52.4943 44.419 50.6835 47.1088 48.3961 49.3961C46.1088 51.6835 43.419 53.4943 40.3269 54.8286C37.2347 56.1629 33.9307 56.83 30.415 56.83ZM30.415 51.747C36.091 51.747 40.8987 49.7773 44.838 45.838C48.7773 41.8987 50.747 37.091 50.747 31.415C50.747 25.739 48.7773 20.9313 44.838 16.992C40.8987 13.0527 36.091 11.083 30.415 11.083C24.739 11.083 19.9313 13.0527 15.992 16.992C12.0527 20.9313 10.083 25.739 10.083 31.415C10.083 37.091 12.0527 41.8987 15.992 45.838C19.9313 49.7773 24.739 51.747 30.415 51.747Z" fill="#C81B1B" />
</svg>