<svg xmlns="http://www.w3.org/2000/svg" width="24" height="24" viewBox="0 0 24 24"><rect data-name="Rectangle 4309" width="24" height="24" fill="none"/><g data-name="Group 4936" transform="translate(3 2)"><path data-name="Path 1286" d="M4.846,20.924h7.116V19.5H4.846a1.423,1.423,0,0,1-1.423-1.423V3.846A1.423,1.423,0,0,1,4.846,2.423H16.232a1.423,1.423,0,0,1,1.423,1.423v9.962h1.423V3.846A2.846,2.846,0,0,0,16.232,1H4.846A2.846,2.846,0,0,0,2,3.846V18.078A2.846,2.846,0,0,0,4.846,20.924Z" transform="translate(-2 -1)" fill="currentColor" /><path data-name="Path 1287" d="M9,3.135V8.116L16.116,1H11.135A2.135,2.135,0,0,0,9,3.135Z" fill="currentColor" transform="translate(0.962 11.809)"/><path data-name="Path 1288" d="M5,10.712A.712.712,0,0,1,5.712,10h7.116a.712.712,0,1,1,0,1.423H5.712A.712.712,0,0,1,5,10.712Z" transform="translate(-0.73 -2.884)" fill="currentColor" fill-rule="evenodd"/><path data-name="Path 1305" d="M0,.712A.712.712,0,0,1,.712,0H7.827a.712.712,0,0,1,0,1.423H.712A.712.712,0,0,1,0,.712Z" transform="translate(9.251 3.558) rotate(90)" fill="currentColor" fill-rule="evenodd"/></g></svg>