<svg xmlns="http://www.w3.org/2000/svg" viewBox="0 0 71.99 54.18">
    <title>measure</title>
    <g id="Layer_2" data-name="Layer 2">
        <g id="Layer_1-2" data-name="Layer 1">
            <path
                d="M36.48,18.46c0-4.91-5.16-8.9-11.51-8.9s-11.5,4-11.5,8.9,5.16,8.89,11.5,8.89S36.48,23.36,36.48,18.46Zm-4.77,0c0,2.2-3.15,4.13-6.74,4.13s-6.74-1.93-6.74-4.13,2.86-4,6.23-4.14H25C28.56,14.32,31.71,16.25,31.71,18.46Z"
            />
            <path
                d="M69.61,32.12H49.81V18.44C49.81,8.27,38.63,0,24.9,0S0,8.27,0,18.44V35.75C0,45,9.31,52.85,21.75,54h.16c.89.08,2,.16,3,.16H69.61A2.38,2.38,0,0,0,72,51.8V34.5A2.39,2.39,0,0,0,69.61,32.12ZM4.83,18.46c0-7.55,9-13.68,20.14-13.68s20.14,6.13,20.14,13.68S36.08,32.13,25,32.13,4.83,26,4.83,18.46ZM45.11,29.2v2.92H41.64A22,22,0,0,0,45.11,29.2ZM64,40.89a2.38,2.38,0,0,0-2.38,2.38v6.16H57.91V46.54a2.38,2.38,0,1,0-4.76,0v2.89H49.47V46.54a2.38,2.38,0,1,0-4.76,0v2.89H41V43.27a2.38,2.38,0,1,0-4.76,0v6.16H32.82V46.54a2.39,2.39,0,0,0-4.77,0v2.89H24.37V46.54a2.38,2.38,0,0,0-4.76,0v2.38C11,47.29,4.9,41.86,4.9,35.74V29.3C9.55,34,17,36.88,25,36.88H67.23V49.42h-.87V43.27A2.39,2.39,0,0,0,64,40.89Z"
            />
        </g>
    </g>
</svg>