<svg xmlns="http://www.w3.org/2000/svg" width="24" height="24" viewBox="0 0 24 24"><rect id="Rectangle_4309" data-name="Rectangle 4309" width="24" height="24" fill="none"/><path id="Path_1299" data-name="Path 1299" d="M1.921,3.28a.64.64,0,0,0-.64.641V6.482h6.4a.641.641,0,0,1,.641.641,2.223,2.223,0,0,0,.391,1.227,1.738,1.738,0,0,0,1.528.693,1.738,1.738,0,0,0,1.528-.694,2.223,2.223,0,0,0,.393-1.227.641.641,0,0,1,.641-.64h6.4V3.921a.641.641,0,0,0-.64-.64ZM19.2,7.762H13.377A3.429,3.429,0,0,1,12.808,9.1a3.011,3.011,0,0,1-2.566,1.227A3.011,3.011,0,0,1,7.674,9.1,3.43,3.43,0,0,1,7.1,7.762H1.28v7.682a.641.641,0,0,0,.641.641H18.565a.641.641,0,0,0,.641-.64ZM0,3.921A1.921,1.921,0,0,1,1.921,2H18.565a1.921,1.921,0,0,1,1.92,1.921V15.443a1.921,1.921,0,0,1-1.92,1.92H1.921A1.92,1.92,0,0,1,0,15.443Z" transform="translate(2 2)" fill-rule="evenodd"/></svg>