<svg width="150" height="20" viewBox="0 0 150 20" fill="none" xmlns="http://www.w3.org/2000/svg">
<g clip-path="url(#clip0_149_1143)">
<path d="M1.20509 12.5818V15.4171H0V8.11615H2.53252C3.38893 8.11615 4.03736 8.31396 4.47168 8.71557C4.906 9.11718 5.1201 9.66266 5.1201 10.358C5.1201 11.0533 4.89988 11.5928 4.45333 11.9884C4.01289 12.384 3.37058 12.5818 2.53252 12.5818H1.20509ZM3.89666 10.358C3.89666 9.94438 3.78043 9.62669 3.54186 9.4109C3.30329 9.19511 2.93014 9.08721 2.40406 9.08721H1.19897V11.6228H2.40406C3.39505 11.6228 3.89054 11.2032 3.89054 10.358H3.89666Z" fill="#7D7C7C"/>
<path d="M10.3013 9.99837C10.754 10.2321 11.1026 10.5738 11.3596 11.0114C11.6165 11.449 11.7388 11.9705 11.7388 12.5639C11.7388 13.1573 11.6104 13.6848 11.3596 14.1284C11.1088 14.572 10.754 14.9076 10.3013 15.1414C9.84862 15.3752 9.34701 15.4951 8.77811 15.4951C8.20921 15.4951 7.7076 15.3752 7.26104 15.1414C6.81449 14.9076 6.45969 14.566 6.20277 14.1224C5.94584 13.6788 5.81738 13.1573 5.81738 12.5639C5.81738 11.9705 5.94584 11.455 6.20277 11.0114C6.45969 10.5678 6.81449 10.2321 7.26104 9.99837C7.7076 9.7646 8.21533 9.64471 8.77811 9.64471C9.34089 9.64471 9.84862 9.7646 10.3013 9.99837ZM7.92782 10.8795C7.66478 11.0174 7.45679 11.2272 7.29775 11.5149C7.1387 11.8026 7.05918 12.1503 7.05918 12.5639C7.05918 12.9775 7.1387 13.3371 7.29775 13.6189C7.45679 13.9006 7.66478 14.1104 7.92782 14.2483C8.19086 14.3861 8.47225 14.4581 8.78423 14.4581C9.0962 14.4581 9.3776 14.3921 9.64064 14.2483C9.89756 14.1104 10.1117 13.9006 10.2707 13.6189C10.4298 13.3371 10.5093 12.9835 10.5093 12.5639C10.5093 12.1443 10.4298 11.8026 10.2707 11.5149C10.1117 11.2272 9.90368 11.0174 9.64064 10.8795C9.3776 10.7417 9.0962 10.6697 8.78423 10.6697C8.47225 10.6697 8.19086 10.7417 7.92782 10.8795Z" fill="#7D7C7C"/>
<path d="M20.9942 9.71661L19.3793 15.4171H18.0519L16.6143 11.0114L15.1584 15.4171H13.8371L12.2222 9.71661H13.4334L14.5406 14.3322L15.9965 9.71661H17.2627L18.7431 14.3322L19.8503 9.71661H20.9881H20.9942Z" fill="#7D7C7C"/>
<path d="M27.1298 12.8037H22.652C22.6704 13.3911 22.8356 13.8227 23.1475 14.1044C23.4595 14.3861 23.8388 14.53 24.2976 14.53C24.7013 14.53 25.0378 14.4281 25.3191 14.2303C25.6005 14.0325 25.7657 13.7627 25.833 13.4331H27.1237C27.0442 13.8347 26.8851 14.1883 26.6405 14.5C26.3958 14.8117 26.0716 15.0515 25.6801 15.2313C25.2886 15.4111 24.8481 15.4951 24.3587 15.4951C23.796 15.4951 23.3005 15.3752 22.8661 15.1414C22.4318 14.9076 22.0954 14.566 21.8446 14.1284C21.5999 13.6848 21.4775 13.1693 21.4775 12.5639C21.4775 11.9585 21.5999 11.455 21.8446 11.0114C22.0893 10.5678 22.4318 10.2321 22.8661 9.99837C23.3005 9.7646 23.796 9.64471 24.3587 9.64471C24.9215 9.64471 25.4293 9.7586 25.8513 9.99238C26.2795 10.2262 26.6038 10.5379 26.8301 10.9455C27.0564 11.3531 27.1727 11.7966 27.1727 12.2942C27.1727 12.486 27.1604 12.6538 27.1298 12.8037ZM25.7657 11.3291C25.6189 11.0773 25.4231 10.8915 25.1723 10.7716C24.9215 10.6517 24.6524 10.5918 24.3526 10.5918C23.8816 10.5918 23.484 10.7357 23.172 11.0174C22.8539 11.2991 22.6826 11.7187 22.6582 12.2702H25.9615C25.9737 11.8985 25.9125 11.5868 25.7657 11.3351V11.3291Z" fill="#7D7C7C"/>
<path d="M30.3293 9.9504C30.6963 9.73461 31.1184 9.62671 31.5956 9.62671V10.9095H31.2347C30.7086 10.9095 30.2804 11.0353 29.9623 11.2871C29.6442 11.5389 29.479 11.9525 29.479 12.5339V15.4171H28.2739V9.71662H29.479V10.8315C29.6748 10.4599 29.9562 10.1662 30.3232 9.9444L30.3293 9.9504Z" fill="#7D7C7C"/>
<path d="M37.7983 12.8037H33.3205C33.3389 13.3911 33.504 13.8227 33.816 14.1044C34.128 14.3861 34.5072 14.53 34.966 14.53C35.3698 14.53 35.7062 14.4281 35.9876 14.2303C36.269 14.0325 36.4342 13.7627 36.5014 13.4331H37.7922C37.7127 13.8347 37.5536 14.1883 37.3089 14.5C37.0642 14.8117 36.74 15.0515 36.3485 15.2313C35.957 15.4111 35.5166 15.4951 35.0272 15.4951C34.4644 15.4951 33.9689 15.3752 33.5346 15.1414C33.1003 14.9076 32.7638 14.566 32.513 14.1284C32.2683 13.6848 32.146 13.1693 32.146 12.5639C32.146 11.9585 32.2683 11.455 32.513 11.0114C32.7577 10.5678 33.1003 10.2321 33.5346 9.99837C33.9689 9.7646 34.4644 9.64471 35.0272 9.64471C35.59 9.64471 36.0977 9.7586 36.5198 9.99238C36.948 10.2262 37.2722 10.5379 37.4985 10.9455C37.7249 11.3531 37.8411 11.7966 37.8411 12.2942C37.8411 12.486 37.8289 12.6538 37.7983 12.8037ZM36.4342 11.3291C36.2873 11.0773 36.0916 10.8915 35.8408 10.7716C35.59 10.6517 35.3208 10.5918 35.0211 10.5918C34.5501 10.5918 34.1524 10.7357 33.8405 11.0174C33.5224 11.2991 33.3511 11.7187 33.3266 12.2702H36.6299C36.6421 11.8985 36.581 11.5868 36.4342 11.3351V11.3291Z" fill="#7D7C7C"/>
<path d="M42.6371 10.0283C43.0102 10.2861 43.2733 10.6217 43.4201 11.0413V7.76251H44.6313V15.4171H43.4201V14.0924C43.2733 14.512 43.0102 14.8537 42.6371 15.1054C42.2639 15.3632 41.8113 15.489 41.2852 15.489C40.7591 15.489 40.3248 15.3692 39.9272 15.1354C39.5295 14.9016 39.2176 14.5599 38.9912 14.1224C38.7649 13.6788 38.6548 13.1633 38.6548 12.5579C38.6548 11.9525 38.7649 11.449 38.9912 11.0054C39.2176 10.5618 39.5295 10.2261 39.9272 9.99236C40.3248 9.75858 40.7775 9.6387 41.2852 9.6387C41.7929 9.6387 42.2639 9.76458 42.6371 10.0223V10.0283ZM40.3737 11.1792C40.0556 11.5149 39.8905 11.9764 39.8905 12.5579C39.8905 13.1393 40.0495 13.6069 40.3737 13.9365C40.6979 14.2662 41.12 14.4401 41.6583 14.4401C41.9948 14.4401 42.3006 14.3621 42.5637 14.2063C42.8328 14.0504 43.0408 13.8346 43.1999 13.5469C43.3589 13.2592 43.4323 12.9355 43.4323 12.5519C43.4323 12.1683 43.3528 11.8506 43.1999 11.5628C43.0469 11.2751 42.8328 11.0533 42.5637 10.9035C42.2945 10.7476 41.9948 10.6697 41.6583 10.6697C41.1261 10.6697 40.6979 10.8375 40.3737 11.1732V11.1792Z" fill="#7D7C7C"/>
<path d="M53.134 9.99834C53.5317 10.2321 53.8436 10.5738 54.07 11.0114C54.2963 11.4489 54.4064 11.9704 54.4064 12.5639C54.4064 13.1573 54.2963 13.6848 54.07 14.1283C53.8436 14.5719 53.5317 14.9076 53.134 15.1414C52.7364 15.3751 52.2838 15.495 51.776 15.495C51.2683 15.495 50.7973 15.3691 50.4241 15.1114C50.051 14.8536 49.7879 14.518 49.6411 14.0984V15.4231H48.436V7.76849H49.6411V11.0473C49.7879 10.6277 50.051 10.2861 50.4241 10.0343C50.7973 9.77655 51.2499 9.65068 51.776 9.65068C52.3021 9.65068 52.7364 9.77056 53.134 10.0043V9.99834ZM50.4975 10.9155C50.2284 11.0713 50.0204 11.2931 49.8613 11.5748C49.7023 11.8565 49.6289 12.1922 49.6289 12.5639C49.6289 12.9355 49.7084 13.2772 49.8613 13.5589C50.0143 13.8406 50.2284 14.0624 50.4975 14.2183C50.7667 14.3741 51.0664 14.452 51.4029 14.452C51.9351 14.452 52.3694 14.2842 52.6936 13.9485C53.0178 13.6128 53.1769 13.1513 53.1769 12.5699C53.1769 11.9884 53.0178 11.5329 52.6936 11.1912C52.3694 10.8555 51.9412 10.6817 51.4029 10.6817C51.0664 10.6817 50.7606 10.7596 50.4975 10.9155Z" fill="#7D7C7C"/>
<path d="M56.1986 9.71661L57.942 13.9066L59.5569 9.71661H60.8966L57.3792 18.1265H56.0395L57.2936 15.2792L54.8467 9.71661H56.1986Z" fill="#7D7C7C"/>
<path d="M117.604 6.55769C116.637 6.55769 115.695 6.86339 114.918 7.43284V6.43781H113.095V19.1335H114.918V14.518C116.918 15.9746 119.739 15.567 121.219 13.6069C122.705 11.6468 122.289 8.88344 120.289 7.43284C119.512 6.86939 118.57 6.56368 117.597 6.56368L117.604 6.55769ZM117.653 13.6488C116.129 13.6668 114.881 12.468 114.863 10.9754C114.845 9.48286 116.068 8.26004 117.591 8.24206C119.115 8.22408 120.362 9.42292 120.381 10.9155C120.393 11.7307 120.02 12.5099 119.378 13.0314C118.894 13.4271 118.283 13.6488 117.653 13.6488Z" fill="#7D7C7C"/>
<path d="M109.945 7.43286C109.168 6.86341 108.226 6.5577 107.26 6.5577C107.26 6.5577 107.254 6.5577 107.247 6.5577C107.241 6.5577 107.241 6.5577 107.235 6.5577C104.745 6.5577 102.727 8.53579 102.733 10.9754C102.733 13.4151 104.752 15.3872 107.235 15.3872C107.235 15.3872 107.241 15.3872 107.247 15.3872C107.254 15.3872 107.254 15.3872 107.26 15.3872C108.226 15.3872 109.168 15.0815 109.945 14.512V15.3512H111.768V6.43182H109.945V7.42686V7.43286ZM107.211 13.6489C105.688 13.6668 104.44 12.468 104.421 10.9754C104.403 9.48288 105.626 8.26006 107.15 8.24207C108.673 8.22409 109.921 9.42293 109.939 10.9155C109.951 11.7307 109.578 12.51 108.936 13.0314C108.453 13.4271 107.841 13.6489 107.211 13.6489Z" fill="#7D7C7C"/>
<path d="M88.8161 13.0255V4.41779H86.9932V13.0255V13.5649V15.3512H88.8161H92.8779V13.5649H88.8161V13.0255Z" fill="#7D7C7C"/>
<path d="M97.5513 6.55768C97.5513 6.55768 97.5268 6.55768 97.5146 6.55768C97.5023 6.55768 97.4901 6.55768 97.4779 6.55768C94.9882 6.55768 92.9695 8.53577 92.9756 10.9754C92.9756 13.4151 94.9943 15.3871 97.4779 15.3871C97.4901 15.3871 97.5023 15.3871 97.5146 15.3871C97.5268 15.3871 97.539 15.3871 97.5513 15.3871C98.8542 15.3871 100.09 14.8357 100.94 13.8766L100.897 13.8466L99.6556 13.0254L99.417 12.8696C99.3558 12.9295 99.2886 12.9715 99.2274 13.0254C98.0651 13.9605 96.3523 13.7927 95.398 12.6598C95.1961 12.42 95.0432 12.1503 94.9392 11.8626H95.7345H101.968C102.469 9.47086 100.891 7.13312 98.4505 6.64759C98.1569 6.58765 97.851 6.55768 97.5513 6.55768ZM94.9392 10.0763C95.4347 8.69162 96.9824 7.96032 98.3954 8.44585C99.1723 8.71559 99.784 9.31501 100.059 10.0763H94.9392Z" fill="#7D7C7C"/>
<path d="M127.293 10.9634H125.158V15.3392H123.335V4.172H127.293C130.003 4.172 130.97 5.67055 130.97 7.5827C130.97 9.25508 130.193 10.9634 127.293 10.9634ZM127.195 9.36898C128.468 9.36898 129.031 8.56575 129.031 7.5887C129.031 6.61164 128.468 5.79043 127.195 5.79043H125.158V9.36898H127.195Z" fill="#7D7C7C"/>
<path d="M138.157 7.42684C137.387 6.86338 136.445 6.55768 135.484 6.55768C135.484 6.55768 135.478 6.55768 135.472 6.55768C135.466 6.55768 135.466 6.55768 135.46 6.55768C132.982 6.55768 130.97 8.52977 130.97 10.9574C130.97 13.3851 132.982 15.3512 135.46 15.3572C135.46 15.3572 135.466 15.3572 135.472 15.3572C135.478 15.3572 135.478 15.3572 135.484 15.3572C136.451 15.3572 137.387 15.0515 138.157 14.488V15.3272H139.974V6.44379H138.157V7.43283V7.42684ZM135.435 13.6189C133.918 13.6368 132.67 12.444 132.658 10.9574C132.64 9.47086 133.857 8.24804 135.374 8.23605C136.891 8.21807 138.139 9.41092 138.151 10.8975C138.164 11.7127 137.797 12.4859 137.154 13.0074C136.671 13.4031 136.065 13.6189 135.435 13.6248V13.6189Z" fill="#7D7C7C"/>
<path d="M142.519 6.43182L145.29 13.1034L147.86 6.43182H149.994L144.526 19.1096H142.391L144.263 15.2913L140.36 6.43182H142.513H142.519Z" fill="#7D7C7C"/>
<path d="M79.6156 4.72346C79.6156 4.72346 79.6401 4.72346 79.6523 4.72346C80.4965 4.72346 81.1755 4.05211 81.1755 3.2309C81.1755 2.40969 80.4904 1.73834 79.6523 1.73834C79.6156 1.73834 79.585 1.74434 79.5483 1.75033C79.9154 2.70341 79.9398 3.7524 79.6156 4.72346Z" fill="#7D7C7C"/>
<path d="M82.9005 3.46465C82.9005 3.38673 82.925 3.3148 82.925 3.23088C82.9311 1.4506 81.463 0 79.6401 0C77.9334 0 76.5019 1.27077 76.349 2.93716C72.1709 3.70442 66.8 6.32988 63.8821 11.4789C62.885 12.1443 62.6281 13.475 63.3071 14.452C63.717 15.0395 64.3899 15.3871 65.1117 15.3871H76.3612L76.3918 14.9675C76.3979 14.8117 76.3918 14.6558 76.3673 14.506L77.444 15.1354C77.7254 15.2972 78.0496 15.3871 78.3738 15.3871H81.9034L81.9707 15.0035C81.9768 14.9555 82.1481 13.8946 81.4263 13.1153C81.0287 12.6837 80.4598 12.432 79.7318 12.3661C79.4688 12.3421 79.2057 12.3421 78.9427 12.3661C78.7469 12.378 78.5573 12.3421 78.3738 12.2641L77.028 11.431L79.9153 9.75258L84.9804 8.42186V8.0682C84.9804 5.7964 84.2524 4.22592 82.8944 3.46465H82.9005ZM79.6217 0.91112C80.9308 0.91112 81.9891 1.94812 81.9891 3.23088C81.9891 4.51364 80.9308 5.55064 79.6217 5.55064C78.3126 5.55064 77.2543 4.51364 77.2543 3.23088C77.2543 1.94812 78.3126 0.91112 79.6217 0.91112ZM79.6217 8.87742L75.2479 11.401L76.8078 12.3601L77.9395 13.0554C78.2759 13.2172 78.6429 13.2892 79.0161 13.2652C79.8297 13.2112 80.4108 13.3611 80.7412 13.7147C80.9247 13.9245 81.0348 14.1883 81.0592 14.464H78.386C78.227 14.464 78.0679 14.4221 77.9334 14.3441L74.6178 12.414C74.5872 12.402 74.5628 12.378 74.5322 12.3601C74.1162 12.1443 73.8226 11.7606 73.7247 11.3171C73.6146 10.8555 73.7369 10.37 74.055 10.0103C74.5444 9.47085 75.1806 9.07523 75.8902 8.88941L75.6211 8.01426C74.7463 8.25402 73.9633 8.73356 73.3577 9.40491C73.2476 9.2131 73.113 9.03327 72.9539 8.87143C72.4095 8.33794 71.6693 8.03224 70.8986 8.03224H68.6964V8.94935H70.8986C71.4185 8.94935 71.9201 9.15316 72.2872 9.5188C72.5991 9.81851 72.7765 10.2321 72.7704 10.6637C72.7704 10.7476 72.7643 10.8315 72.7521 10.9155C72.697 11.371 72.4401 11.7786 72.0486 12.0304C71.8284 12.1862 71.5837 12.3001 71.3268 12.372C71.0515 12.45 70.764 12.4919 70.4765 12.4919H65.6561V13.415H73.2353C74.0673 13.3191 74.6729 13.451 75.046 13.7987C75.2357 13.9845 75.3702 14.2243 75.4253 14.482H65.1178C64.4266 14.482 63.8638 13.9305 63.8638 13.2472C63.8638 12.9175 63.9984 12.5998 64.243 12.372C64.3103 12.3121 64.3837 12.2522 64.4633 12.2042L66.6043 11.1672V11.1552L67.7115 10.6097L67.2955 9.79454L65.5277 10.6637C68.366 6.67755 72.8133 4.56759 76.3918 3.87825C76.7405 5.62856 78.4717 6.76746 80.2579 6.42579C81.3651 6.21 82.2827 5.46072 82.6925 4.42972C83.5367 5.03513 83.9955 6.13807 84.0506 7.73253L79.6217 8.8954V8.87742Z" fill="#7D7C7C"/>
</g>
<defs>
<clipPath id="clip0_149_1143">
<rect width="150" height="19.1275" fill="white"/>
</clipPath>
</defs>
</svg>
