<svg xmlns="http://www.w3.org/2000/svg" width="20.229" height="17.228" viewBox="0 0 20.229 17.228"><g data-name="Group 2118" transform="translate(0.503 19.227) rotate(-90)"><path data-name="Path 1296" d="M9.315.21A.718.718,0,0,0,8.3.21L4.71,3.8a.718.718,0,0,0,0,1.016L8.3,8.4A.719.719,0,0,0,9.315,7.388L6.233,4.307,9.315,1.226a.718.718,0,0,0,0-1.016Z" transform="matrix(0.891, -0.454, 0.454, 0.891, -0.673, 3.823)" fill="currentColor" fill-rule="evenodd"/><g data-name="Group 2128"><path data-name="Path 1295" d="M17.547,8.757A7.178,7.178,0,0,0,7.351,4.22c-.354.18-1.225.553-1.4.2s.4-1.3.753-1.479A8.613,8.613,0,1,1,2.783,7.025a.718.718,0,1,1,1.306.6A7.178,7.178,0,1,0,17.547,8.757Z" transform="translate(0 0.5)" fill-rule="evenodd"/><text data-name="$" transform="translate(7.227 8.498) rotate(90)" font-size="9" font-family="Roboto-Bold, Roboto" font-weight="700"><tspan x="0" y="0">$</tspan></text></g></g></svg>