<svg xmlns="http://www.w3.org/2000/svg" width="78.153" height="73.337" viewBox="0 0 78.153 73.337">
  <g id="sent" transform="translate(0)">
    <path id="Path_2075" data-name="Path 2075" d="M96.417,13.162V2.029A2.018,2.018,0,0,0,94.42,0H42.111a2.019,2.019,0,0,0-2,2.029V13.162Zm0,0" transform="translate(-33.991)" fill="#f4b537"/>
    <path id="Path_2076" data-name="Path 2076" d="M46.828,0H42.11a2.019,2.019,0,0,0-2,2.029V13.162h4.718V2.029a2.018,2.018,0,0,1,2-2.029Zm0,0" transform="translate(-33.991)" fill="#eaa01c"/>
    <path id="Path_2077" data-name="Path 2077" d="M85.113,13.162l11.3-11.133A2.018,2.018,0,0,0,94.42,0H42.111a2.019,2.019,0,0,0-2,2.029l11.3,11.133Zm0,0" transform="translate(-33.991)" fill="#feca57"/>
    <path id="Path_2078" data-name="Path 2078" d="M40.113,2.029l4.718,4.647V2.029a2.018,2.018,0,0,1,2-2.029H42.11a2.019,2.019,0,0,0-2,2.029Zm0,0" transform="translate(-33.991 0)" fill="#f4b537"/>
    <path id="Path_2079" data-name="Path 2079" d="M49.891,131.106A14.143,14.143,0,0,1,68.55,117.715V87.282a2.438,2.438,0,0,0-2.431-2.43H2.432A2.437,2.437,0,0,0,0,87.282v42.3a2.437,2.437,0,0,0,2.431,2.43H49.92c-.019-.3-.03-.6-.03-.91Zm0,0" transform="translate(-0.001 -71.9)" fill="#feca57"/>
    <path id="Path_2080" data-name="Path 2080" d="M4.718,129.587v-42.3a2.438,2.438,0,0,1,2.431-2.43H2.431A2.437,2.437,0,0,0,0,87.282v42.3a2.437,2.437,0,0,0,2.431,2.43H7.149A2.438,2.438,0,0,1,4.718,129.587Zm0,0" transform="translate(0 -71.9)" fill="#f4b537"/>
    <path id="Path_2081" data-name="Path 2081" d="M49.89,262.02a14.129,14.129,0,0,1,7.4-12.43L46.725,239.348l-5.162,5a10.471,10.471,0,0,1-14.577,0l-5.162-5L0,260.5a2.437,2.437,0,0,0,2.431,2.43H49.92c-.019-.3-.03-.6-.03-.91Zm0,0" transform="translate(0 -202.813)" fill="#f4b537"/>
    <path id="Path_2082" data-name="Path 2082" d="M25.11,242.532l-3.286-3.185L0,260.5a2.437,2.437,0,0,0,2.431,2.43H4.063Zm0,0" transform="translate(0 -202.813)" fill="#eaa01c"/>
    <path id="Path_2083" data-name="Path 2083" d="M66.118,84.852H2.431A2.437,2.437,0,0,0,0,87.282l26.986,26.47a10.472,10.472,0,0,0,14.577,0l26.987-26.47a2.438,2.438,0,0,0-2.431-2.43Zm0,0" transform="translate(0 -71.9)" fill="#fcd486"/>
    <path id="Path_2084" data-name="Path 2084" d="M0,87.281l4.718,4.628V87.281a2.438,2.438,0,0,1,2.431-2.43H2.431A2.437,2.437,0,0,0,0,87.281Zm0,0" transform="translate(0 -71.899)" fill="#feca57"/>
    <path id="Path_2085" data-name="Path 2085" d="M354.166,308.407a14.216,14.216,0,1,1-14.216-14.216,14.216,14.216,0,0,1,14.216,14.216Zm0,0" transform="translate(-276.014 -249.285)" fill="#1dd1a1"/>
    <path id="Path_2086" data-name="Path 2086" d="M330.453,308.407a14.219,14.219,0,0,1,11.857-14.02,14.216,14.216,0,1,0,0,28.04,14.219,14.219,0,0,1-11.857-14.02Zm0,0" transform="translate(-276.014 -249.285)" fill="#15ba8b"/>
    <path id="Path_2087" data-name="Path 2087" d="M386.713,357.467l-6.838,6.838-3.463-3.463a1.179,1.179,0,0,0-1.668,1.668l4.3,4.3a1.179,1.179,0,0,0,1.668,0l7.672-7.672a1.179,1.179,0,0,0-1.668-1.668Zm0,0" transform="translate(-317.25 -302.61)" fill="#e4eaf8"/>
  </g>
</svg>
