<svg width="20" height="20" viewBox="0 0 20 20" fill="none" xmlns="http://www.w3.org/2000/svg">
	<path d="M9.99996 4.58329H17.5C17.721 4.58329 17.9329 4.4955 18.0892 4.33922C18.2455 4.18294 18.3333 3.97097 18.3333 3.74996C18.3333 3.52895 18.2455 3.31698 18.0892 3.1607C17.9329 3.00442 17.721 2.91663 17.5 2.91663H9.99996C9.77895 2.91663 9.56698 3.00442 9.4107 3.1607C9.25442 3.31698 9.16663 3.52895 9.16663 3.74996C9.16663 3.97097 9.25442 4.18294 9.4107 4.33922C9.56698 4.4955 9.77895 4.58329 9.99996 4.58329Z" fill="#54627D"/>
	<path d="M9.99996 8.74992H17.5C17.721 8.74992 17.9329 8.66212 18.0892 8.50584C18.2455 8.34956 18.3333 8.1376 18.3333 7.91659C18.3333 7.69557 18.2455 7.48361 18.0892 7.32733C17.9329 7.17105 17.721 7.08325 17.5 7.08325H9.99996C9.77895 7.08325 9.56698 7.17105 9.4107 7.32733C9.25442 7.48361 9.16663 7.69557 9.16663 7.91659C9.16663 8.1376 9.25442 8.34956 9.4107 8.50584C9.56698 8.66212 9.77895 8.74992 9.99996 8.74992Z" fill="#54627D"/>
	<path d="M9.99996 12.9167H17.5C17.721 12.9167 17.9329 12.8289 18.0892 12.6726C18.2455 12.5163 18.3333 12.3043 18.3333 12.0833C18.3333 11.8623 18.2455 11.6504 18.0892 11.4941C17.9329 11.3378 17.721 11.25 17.5 11.25H9.99996C9.77895 11.25 9.56698 11.3378 9.4107 11.4941C9.25442 11.6504 9.16663 11.8623 9.16663 12.0833C9.16663 12.3043 9.25442 12.5163 9.4107 12.6726C9.56698 12.8289 9.77895 12.9167 9.99996 12.9167Z" fill="#54627D"/>
	<path d="M9.99996 17.0833H17.5C17.721 17.0833 17.9329 16.9955 18.0892 16.8392C18.2455 16.6829 18.3333 16.471 18.3333 16.25C18.3333 16.0289 18.2455 15.817 18.0892 15.6607C17.9329 15.5044 17.721 15.4166 17.5 15.4166H9.99996C9.77895 15.4166 9.56698 15.5044 9.4107 15.6607C9.25442 15.817 9.16663 16.0289 9.16663 16.25C9.16663 16.471 9.25442 16.6829 9.4107 16.8392C9.56698 16.9955 9.77895 17.0833 9.99996 17.0833Z" fill="#54627D"/>
	<path d="M4.99997 1.66663C4.77896 1.66663 4.567 1.75442 4.41072 1.9107C4.25444 2.06698 4.16664 2.27895 4.16664 2.49996V15.4883L3.08914 14.4108C2.93197 14.259 2.72147 14.175 2.50297 14.1769C2.28447 14.1788 2.07546 14.2664 1.92096 14.4209C1.76645 14.5755 1.67881 14.7845 1.67691 15.003C1.67501 15.2215 1.75901 15.432 1.91081 15.5891L4.41081 18.0891C4.48822 18.1667 4.58018 18.2283 4.68142 18.2703C4.78266 18.3123 4.89119 18.334 5.00081 18.334C5.11042 18.334 5.21895 18.3123 5.3202 18.2703C5.42144 18.2283 5.5134 18.1667 5.59081 18.0891L8.09081 15.5891C8.2426 15.432 8.3266 15.2215 8.3247 15.003C8.3228 14.7845 8.23516 14.5755 8.08066 14.4209C7.92615 14.2664 7.71714 14.1788 7.49864 14.1769C7.28014 14.175 7.06964 14.259 6.91247 14.4108L5.83331 15.4883V2.49996C5.83331 2.27895 5.74551 2.06698 5.58923 1.9107C5.43295 1.75442 5.22099 1.66663 4.99997 1.66663Z" fill="#54627D"/>
	</svg>
	