<svg width="20" height="20" viewBox="0 0 20 20" fill="none" xmlns="http://www.w3.org/2000/svg">
	<path d="M9.99996 4.58329H17.5C17.721 4.58329 17.9329 4.4955 18.0892 4.33922C18.2455 4.18294 18.3333 3.97097 18.3333 3.74996C18.3333 3.52895 18.2455 3.31698 18.0892 3.1607C17.9329 3.00442 17.721 2.91663 17.5 2.91663H9.99996C9.77895 2.91663 9.56698 3.00442 9.4107 3.1607C9.25442 3.31698 9.16663 3.52895 9.16663 3.74996C9.16663 3.97097 9.25442 4.18294 9.4107 4.33922C9.56698 4.4955 9.77895 4.58329 9.99996 4.58329V4.58329Z" fill="#54627D"/>
	<path d="M9.99996 8.75004H17.5C17.721 8.75004 17.9329 8.66224 18.0892 8.50596C18.2455 8.34968 18.3333 8.13772 18.3333 7.91671C18.3333 7.69569 18.2455 7.48373 18.0892 7.32745C17.9329 7.17117 17.721 7.08337 17.5 7.08337H9.99996C9.77895 7.08337 9.56698 7.17117 9.4107 7.32745C9.25442 7.48373 9.16663 7.69569 9.16663 7.91671C9.16663 8.13772 9.25442 8.34968 9.4107 8.50596C9.56698 8.66224 9.77895 8.75004 9.99996 8.75004V8.75004Z" fill="#54627D"/>
	<path d="M9.99996 12.9167H17.5C17.721 12.9167 17.9329 12.8289 18.0892 12.6726C18.2455 12.5163 18.3333 12.3043 18.3333 12.0833C18.3333 11.8623 18.2455 11.6504 18.0892 11.4941C17.9329 11.3378 17.721 11.25 17.5 11.25H9.99996C9.77895 11.25 9.56698 11.3378 9.4107 11.4941C9.25442 11.6504 9.16663 11.8623 9.16663 12.0833C9.16663 12.3043 9.25442 12.5163 9.4107 12.6726C9.56698 12.8289 9.77895 12.9167 9.99996 12.9167V12.9167Z" fill="#54627D"/>
	<path d="M9.99996 17.0833H17.5C17.721 17.0833 17.9329 16.9955 18.0892 16.8392C18.2455 16.6829 18.3333 16.471 18.3333 16.25C18.3333 16.0289 18.2455 15.817 18.0892 15.6607C17.9329 15.5044 17.721 15.4166 17.5 15.4166H9.99996C9.77895 15.4166 9.56698 15.5044 9.4107 15.6607C9.25442 15.817 9.16663 16.0289 9.16663 16.25C9.16663 16.471 9.25442 16.6829 9.4107 16.8392C9.56698 16.9955 9.77895 17.0833 9.99996 17.0833V17.0833Z" fill="#54627D"/>
	<path d="M5.00161 18.334C5.22263 18.334 5.43459 18.2462 5.59087 18.0899C5.74715 17.9336 5.83495 17.7217 5.83495 17.5007L5.83495 4.51231L6.91245 5.58982C7.06961 5.74161 7.28012 5.82561 7.49861 5.82371C7.71711 5.82181 7.92612 5.73417 8.08063 5.57966C8.23513 5.42516 8.32278 5.21615 8.32467 4.99765C8.32657 4.77915 8.24258 4.56865 8.09078 4.41148L5.59078 1.91148C5.51337 1.83388 5.42141 1.7723 5.32017 1.73029C5.21893 1.68828 5.11039 1.66666 5.00078 1.66666C4.89117 1.66666 4.78263 1.68828 4.68139 1.73029C4.58015 1.7723 4.48819 1.83388 4.41078 1.91148L1.91078 4.41148C1.75898 4.56865 1.67499 4.77915 1.67688 4.99765C1.67878 5.21615 1.76642 5.42516 1.92093 5.57966C2.07544 5.73417 2.28445 5.82181 2.50294 5.82371C2.72144 5.82561 2.93194 5.74161 3.08911 5.58982L4.16828 4.51232L4.16828 17.5007C4.16828 17.7217 4.25608 17.9336 4.41236 18.0899C4.56864 18.2462 4.7806 18.334 5.00161 18.334V18.334Z" fill="#54627D"/>
	</svg>