<svg width="40" height="40" viewBox="0 0 61 62" fill="none" xmlns="http://www.w3.org/2000/svg">
<path d="M26.9413 43.1279L44.8601 25.2092L41.3018 21.6508L26.9413 36.0113L19.6976 28.7675L16.1393 32.3258L26.9413 43.1279ZM30.4997 56.8529C26.9837 56.8529 23.6795 56.1857 20.5872 54.8514C17.4948 53.517 14.8049 51.7061 12.5174 49.4185C10.2299 47.1311 8.41895 44.4411 7.08457 41.3488C5.7502 38.2564 5.08301 34.9522 5.08301 31.4363C5.08301 27.9203 5.7502 24.6161 7.08457 21.5238C8.41895 18.4314 10.2299 15.7415 12.5174 13.454C14.8049 11.1665 17.4948 9.35553 20.5872 8.02115C23.6795 6.68678 26.9837 6.01959 30.4997 6.01959C34.0156 6.01959 37.3198 6.68678 40.4122 8.02115C43.5045 9.35553 46.1945 11.1665 48.482 13.454C50.7695 15.7415 52.5804 18.4314 53.9148 21.5238C55.2492 24.6161 55.9163 27.9203 55.9163 31.4363C55.9163 34.9522 55.2492 38.2564 53.9148 41.3488C52.5804 44.4411 50.7695 47.1311 48.482 49.4185C46.1945 51.7061 43.5045 53.517 40.4122 54.8514C37.3198 56.1857 34.0156 56.8529 30.4997 56.8529ZM30.4997 51.7696C36.1761 51.7696 40.9841 49.7998 44.9236 45.8602C48.8632 41.9206 50.833 37.1126 50.833 31.4363C50.833 25.7599 48.8632 20.9519 44.9236 17.0123C40.9841 13.0727 36.1761 11.1029 30.4997 11.1029C24.8233 11.1029 20.0153 13.0727 16.0757 17.0123C12.1361 20.9519 10.1663 25.7599 10.1663 31.4363C10.1663 37.1126 12.1361 41.9206 16.0757 45.8602C20.0153 49.7998 24.8233 51.7696 30.4997 51.7696Z" fill="#2CA01C" />
</svg>