<svg fill="#000000" xmlns="http://www.w3.org/2000/svg"  viewBox="0 0 24 24" width="24px" height="24px"><path d="M 12 2 C 6.5 2 2 6.5 2 12 C 2 17.5 6.5 22 12 22 C 17.5 22 22 17.5 22 12 C 22 6.5 17.5 2 12 2 z M 12 3 C 17 3 21 7 21 12 C 21 17 17 21 12 21 C 7 21 3 17 3 12 C 3 7 7 3 12 3 z M 12 4 C 9.2 4 6.7007812 5.3996094 5.3007812 7.5996094 L 5.8007812 7.5996094 C 6.7007813 7.5996094 8 7.5 8 7.5 C 8.4 7.5 8.4996094 8.0992188 8.0996094 8.1992188 C 8.0996094 8.1992188 7.6992187 8.3007812 7.1992188 8.3007812 L 9.9003906 16.199219 L 11.699219 10.900391 L 10.699219 8.1992188 C 10.299219 8.1992188 9.9003906 8.0996094 9.9003906 8.0996094 C 9.5003906 8.0996094 9.5 7.4003906 10 7.4003906 C 10 7.4003906 11.299609 7.5 12.099609 7.5 C 12.899609 7.5 14.199219 7.4003906 14.199219 7.4003906 C 14.599219 7.4003906 14.700781 7.9996094 14.300781 8.0996094 C 14.300781 8.0996094 13.900391 8.1992187 13.400391 8.1992188 L 16.300781 16.199219 L 17.099609 13.5 C 17.099609 12.5 17.400391 11.7 17.400391 11 C 17.400391 10.2 16.999219 9.9003906 16.699219 9.4003906 C 16.299219 8.7003906 16 8.2 16 7.5 C 16 6.8 16.600781 6.0996094 17.300781 6.0996094 L 17.400391 6.0996094 C 16.000391 4.7996094 14.1 4 12 4 z M 19 8.1992188 C 19 8.4992188 18.999609 8.7 19.099609 9 C 19.099609 9.8 19.000781 10.999609 18.800781 11.599609 C 18.200781 13.499609 16.400391 18.699219 16.400391 18.699219 C 16.400391 18.699219 16.499609 18.699609 16.599609 18.599609 C 18.699609 17.199609 20 14.8 20 12 C 20 10.6 19.6 9.2992187 19 8.1992188 z M 4.6992188 8.6992188 C 4.1992188 9.6992188 4 10.8 4 12 C 4 15.2 5.8 17.899219 8.5 19.199219 L 4.6992188 8.6992188 z M 12.099609 12.699219 L 9.6992188 19.699219 C 10.399219 19.899219 11.2 20 12 20 C 12.9 20 13.799219 19.8 14.699219 19.5 C 14.699219 19.5 14.699609 19.400391 14.599609 19.400391 L 12.099609 12.699219 z"/></svg>